<?xml version="1.0" encoding="utf-8"?>
<!-- Generator: Adobe Illustrator 26.5.0, SVG Export Plug-In . SVG Version: 6.00 Build 0)  -->
<svg version="1.1" id="Layer_1" xmlns="http://www.w3.org/2000/svg" xmlns:xlink="http://www.w3.org/1999/xlink" x="0px" y="0px"
	 viewBox="0 0 300 300" style="enable-background:new 0 0 300 300;" xml:space="preserve">
<style type="text/css">
	.st0{fill:#414042;}
</style>
<g>
	<path class="st0" d="M210.4,300h-28.9c-8.7,0-15.9-7.8-15.9-17.4V36.8h13.6v245.8c0,2.3,1.4,3.8,2.3,3.8h28.9
		c0.9,0,2.3-1.5,2.3-3.8V55.3h13.6v227.3C226.2,292.2,219.1,300,210.4,300z"/>
	<rect x="175" y="201.5" class="st0" width="47" height="13.6"/>
	<rect x="175" y="245.1" class="st0" width="47" height="13.6"/>
	<rect x="175" y="114.1" class="st0" width="47" height="13.6"/>
	<rect x="175" y="157.8" class="st0" width="47" height="13.6"/>
	<rect x="175" y="70.4" class="st0" width="47" height="13.6"/>
	<path class="st0" d="M176.5,279.2h-52.9c-39.7,0-72-32.3-72-72V102c0-39.7,32.3-72,72-72h52.9c39.7,0,72,32.3,72,72v105.1
		C248.5,246.8,216.2,279.2,176.5,279.2z M123.5,43.5c-32.2,0-58.5,26.2-58.5,58.5v105.1c0,32.2,26.2,58.5,58.5,58.5h52.9
		c32.2,0,58.5-26.2,58.5-58.5V102c0-32.2-26.2-58.5-58.5-58.5H123.5z"/>
	<path class="st0" d="M124.3,300H82.8c-4.7,0-8.5-3.8-8.5-8.5v-36.1h13.6v31h31.4v-14.1h13.6v19.1C132.8,296.2,129,300,124.3,300z"
		/>
	<path class="st0" d="M195.2,13.6h-90.5c-3.7,0-6.8-3-6.8-6.8s3-6.8,6.8-6.8h90.5c3.7,0,6.8,3,6.8,6.8S199,13.6,195.2,13.6z"/>
	<rect x="120.8" y="12.5" class="st0" width="13.6" height="19.1"/>
	<rect x="165.7" y="12.5" class="st0" width="13.6" height="19.1"/>
	<path class="st0" d="M117.3,159.6c-17,0-30.8-13.8-30.8-30.8c0-13.3,21.6-44.4,30.8-44.4c1.9,0,5.7,0,18.1,16.5
		c8.4,11.3,12.7,20.6,12.7,27.8C148.1,145.7,134.3,159.6,117.3,159.6z M117.2,100.2c-6.1,6.6-17.2,21.2-17.2,28.6
		c0,9.5,7.7,17.2,17.2,17.2s17.2-7.7,17.2-17.2C134.5,121.5,123.4,106.9,117.2,100.2z"/>
</g>
</svg>
